<?xml version="1.0" standalone="no"?>
<!DOCTYPE svg PUBLIC "-//W3C//DTD SVG 20010904//EN"
 "http://www.w3.org/TR/2001/REC-SVG-20010904/DTD/svg10.dtd">
<svg version="1.0" xmlns="http://www.w3.org/2000/svg"
 width="512.000000pt" height="512.000000pt" viewBox="0 0 512.000000 512.000000"
 preserveAspectRatio="xMidYMid meet">
<metadata>
Created by potrace 1.11, written by Peter Selinger 2001-2013
</metadata>
<g transform="translate(0.000000,512.000000) scale(0.100000,-0.100000)"
fill="#000000" stroke="none">
<path d="M1045 5101 c-122 -30 -217 -85 -308 -176 -71 -72 -117 -147 -154
-250 l-28 -80 -2 -2010 c-3 -2170 -5 -2063 48 -2188 61 -146 189 -277 329
-340 168 -75 373 -73 541 5 195 90 343 294 365 502 4 33 7 242 7 463 0 222 2
403 3 403 1 0 22 -35 45 -78 24 -42 48 -85 54 -94 55 -93 105 -183 105 -191 0
-28 32 14 98 129 41 71 83 143 93 159 10 17 23 40 29 53 5 12 14 22 19 22 4 0
62 -85 127 -189 65 -104 120 -189 121 -188 1 1 55 89 121 195 l120 192 40 -62
c22 -35 75 -120 118 -190 44 -71 82 -128 85 -128 4 0 60 86 125 190 100 161
121 188 130 175 9 -12 12 -132 13 -438 0 -386 2 -428 20 -499 32 -125 82 -211
176 -303 68 -66 87 -80 170 -120 241 -117 537 -68 727 119 95 93 139 167 174
296 l23 85 -2 2010 c-1 1106 -5 2019 -9 2030 -3 11 -9 33 -14 49 -4 16 -13 41
-20 55 -8 14 -14 31 -14 37 0 17 -90 147 -125 179 -74 69 -100 88 -166 122
-103 52 -190 71 -306 68 -120 -4 -150 -9 -235 -45 -192 -80 -331 -243 -383
-449 -14 -56 -16 -160 -17 -839 0 -448 -4 -786 -9 -800 -51 -134 -479 -306
-759 -304 -205 1 -520 146 -655 301 -20 23 -20 38 -21 775 -1 413 -4 774 -7
801 -20 171 -120 339 -261 439 -65 47 -155 92 -201 100 -13 3 -29 8 -35 11 -6
4 -59 8 -118 10 -78 3 -126 -1 -177 -14z m893 -2480 c90 -25 177 -103 224
-200 53 -110 42 -256 -26 -356 -101 -150 -296 -204 -461 -127 -311 146 -268
599 65 685 58 16 135 14 198 -2z m1452 -3 c161 -55 268 -220 248 -386 -46
-394 -589 -450 -713 -74 -25 77 -18 189 17 265 30 65 106 144 165 172 87 42
199 51 283 23z m-710 -719 c72 -15 81 -23 69 -59 -13 -36 -109 -142 -155 -170
-48 -31 -71 -22 -152 58 -76 76 -102 123 -82 147 26 31 218 46 320 24z"/>
</g>
</svg>
